# xmcd CD database file
#
# Track frame offsets:
#	150
#	25962
#	51570
#	70325
#	91682
#	111162
#	138442
#	160792
#	181367
#	204177
#
# Disc length: 3023 seconds
#
# Revision: 8
# Processed by: cddbd v1.5.2PL0 Copyright (c) Steve Scherf et al.
# Submitted via: CDex 1.70beta3
#
DISCID=850bcd0a
DTITLE=Syrup16g - COPY
DYEAR=2001
DGENRE=Rock
TTITLE0=She was beautiful
TTITLE1=無効の日
TTITLE2=生活
TTITLE3=君待ち
TTITLE4=デイパス
TTITLE5=負け犬
TTITLE6=(I can't)Change the world
TTITLE7=Drawn the light
TTITLE8=パッチワーク
TTITLE9=土曜日
EXTD=YEAR: 2001
EXTT0=
EXTT1=
EXTT2=
EXTT3=
EXTT4=
EXTT5=
EXTT6=
EXTT7=
EXTT8=
EXTT9=
PLAYORDER=
